<svg width="300" height="600" viewBox="0 0 300 600" fill="none" xmlns="http://www.w3.org/2000/svg">
  <!-- Phone Frame -->
  <rect x="10" y="10" width="280" height="580" rx="40" fill="#1F2937" stroke="#374151" stroke-width="2"/>
  <rect x="20" y="50" width="260" height="500" rx="20" fill="#FFFFFF"/>
  
  <!-- Status Bar -->
  <rect x="20" y="50" width="260" height="30" fill="#0EA5E9"/>
  <text x="40" y="70" fill="white" font-family="Arial, sans-serif" font-size="12" font-weight="bold">Tailgate Scooters</text>
  
  <!-- Header -->
  <rect x="30" y="90" width="240" height="60" fill="#F8FAFC"/>
  <text x="40" y="115" fill="#1E293B" font-family="Arial, sans-serif" font-size="16" font-weight="bold">Find Your Scooter</text>
  <text x="40" y="135" fill="#64748B" font-family="Arial, sans-serif" font-size="12">Available for lease</text>
  
  <!-- Scooter Cards -->
  <rect x="30" y="160" width="240" height="80" rx="8" fill="#FFFFFF" stroke="#E2E8F0" stroke-width="1"/>
  <rect x="40" y="170" width="60" height="60" rx="8" fill="#F1F5F9"/>
  <text x="45" y="205" font-size="24">🛴</text>
  <text x="110" y="185" fill="#1E293B" font-family="Arial, sans-serif" font-size="14" font-weight="bold">Basic Plan</text>
  <text x="110" y="205" fill="#0EA5E9" font-family="Arial, sans-serif" font-size="16" font-weight="bold">$37.50/mo</text>
  <text x="110" y="220" fill="#64748B" font-family="Arial, sans-serif" font-size="10">Segway Ninebot E22</text>
  
  <rect x="30" y="250" width="240" height="80" rx="8" fill="#FFFFFF" stroke="#E2E8F0" stroke-width="1"/>
  <rect x="40" y="260" width="60" height="60" rx="8" fill="#F1F5F9"/>
  <text x="45" y="295" font-size="24">🛴</text>
  <text x="110" y="275" fill="#1E293B" font-family="Arial, sans-serif" font-size="14" font-weight="bold">Premium Plan</text>
  <text x="110" y="295" fill="#0EA5E9" font-family="Arial, sans-serif" font-size="16" font-weight="bold">$52.50/mo</text>
  <text x="110" y="310" fill="#64748B" font-family="Arial, sans-serif" font-size="10">Segway Ninebot ES2</text>
  
  <!-- Bottom Navigation -->
  <rect x="20" y="520" width="260" height="30" fill="#F8FAFC"/>
  <circle cx="70" cy="535" r="8" fill="#0EA5E9"/>
  <circle cx="150" cy="535" r="8" fill="#D1D5DB"/>
  <circle cx="230" cy="535" r="8" fill="#D1D5DB"/>
  
  <!-- Home Button -->
  <rect x="130" y="570" width="40" height="4" rx="2" fill="#9CA3AF"/>
</svg>
